<?xml version="1.0" encoding="UTF-8" standalone="no"?>
<svg
   width="1063.2883"
   height="473.9274"
   version="1.1"
   id="svg8"
   sodipodi:docname="image.svg"
   inkscape:version="0.92.3 (2405546, 2018-03-11)"
   xml:space="preserve"
   inkscape:export-filename="basket-logo.svg"
   inkscape:export-xdpi="99.785713"
   inkscape:export-ydpi="99.785713"
   xmlns:inkscape="http://www.inkscape.org/namespaces/inkscape"
   xmlns:sodipodi="http://sodipodi.sourceforge.net/DTD/sodipodi-0.dtd"
   xmlns:xlink="http://www.w3.org/1999/xlink"
   xmlns="http://www.w3.org/2000/svg"
   xmlns:svg="http://www.w3.org/2000/svg"
   xmlns:rdf="http://www.w3.org/1999/02/22-rdf-syntax-ns#"
   xmlns:cc="http://creativecommons.org/ns#"
   xmlns:dc="http://purl.org/dc/elements/1.1/"><metadata
     id="metadata14"><rdf:rdf><cc:work
         rdf:about=""><dc:format>image/svg+xml</dc:format><dc:type
           rdf:resource="http://purl.org/dc/dcmitype/StillImage" /></cc:work></rdf:rdf></metadata><defs
     id="defs12"><linearGradient
       inkscape:collect="always"
       id="linearGradient7710"><stop
         style="stop-color:#000000;stop-opacity:1;"
         offset="0"
         id="stop7706" /><stop
         style="stop-color:#000000;stop-opacity:0;"
         offset="1"
         id="stop7708" /></linearGradient><radialGradient
       inkscape:collect="always"
       xlink:href="#linearGradient7710"
       id="radialGradient7714"
       cx="220.44341"
       cy="327.2457"
       fx="220.44341"
       fy="327.2457"
       r="195.48769"
       gradientTransform="matrix(1,0,0,1.2121668,0,-69.430688)"
       gradientUnits="userSpaceOnUse" /></defs><sodipodi:namedview
     pagecolor="#ffffff"
     bordercolor="#666666"
     borderopacity="1"
     objecttolerance="10"
     gridtolerance="10"
     guidetolerance="10"
     inkscape:pageopacity="0"
     inkscape:pageshadow="2"
     inkscape:window-width="1920"
     inkscape:window-height="1017"
     id="namedview10"
     showgrid="false"
     inkscape:zoom="0.82917919"
     inkscape:cx="70.237358"
     inkscape:cy="300"
     inkscape:window-x="-8"
     inkscape:window-y="-8"
     inkscape:window-maximized="1"
     inkscape:current-layer="svg8"
     inkscape:showpageshadow="2"
     inkscape:pagecheckerboard="0"
     inkscape:deskcolor="#d1d1d1"
     showguides="true"><sodipodi:guide
       position="0.30929091,581.64004"
       orientation="0,-1"
       id="guide7149"
       inkscape:locked="false" /></sodipodi:namedview><g
     id="g7537"
     transform="translate(-24.955717,-90.282005)"><path
       d="m 274.08036,125.76333 c -6.10856,18.85565 -17.6105,32.03375 -28.60497,44.50546 -1.80885,2.31525 -6.30586,6.79971 -3.04384,10.21347 2.79534,-4.57903 10.46614,1.48509 6.00801,6.41037 -3.99332,5.4787 -9.49198,7.48524 -13.92638,12.00726 -3.92693,3.12871 -7.91078,6.39369 -11.02482,11.18129 -0.21153,7.48108 6.33052,3.34007 8.98547,6.45625 3.45741,5.41753 -1.46548,14.55334 -6.00327,12.46336 -5.80125,0.26143 -9.80786,7.74528 -12.00276,14.88429 -4.53779,10.28718 -13.13721,13.33524 -19.98468,19.18939 -3.91745,3.34701 -7.71823,7.05139 -11.36439,10.9574 -4.70189,4.71391 -0.61181,14.04441 4.39171,11.75419 5.40001,-0.78982 10.25841,-7.00968 15.85002,-5.21728 5.06992,2.61142 6.49272,12.3257 4.76543,19.10872 -1.28051,5.43005 -4.38223,9.2554 -6.86643,13.49654 -4.03413,5.99181 -9.30988,9.88114 -14.87304,11.73611 -5.37534,2.64618 -10.20813,7.47412 -13.73477,13.99295 -4.09198,6.04047 -8.16878,12.17831 -12.87352,17.21482 -1.48635,5.55936 2.70807,10.29412 6.20342,10.14673 7.36822,-0.68135 12.47323,-9.5196 18.74779,-14.06247 5.20744,-3.43046 11.33498,4.79733 10.0611,12.74842 -0.40312,7.73692 -5.34404,11.66241 -9.7367,14.043 -12.9143,9.51683 -24.12789,23.31926 -34.0837,38.54562 -2.05927,6.15868 -7.72107,4.34543 -10.76871,8.638 -1.98529,5.43143 2.99737,8.29593 5.97101,7.73834 12.77677,-2.25268 24.69985,-10.17038 35.99405,-18.88069 4.20013,-2.94376 8.14412,-6.8178 12.51117,-9.16363 4.10147,-1.48647 9.82113,1.12634 10.55435,7.97056 -0.006,7.22521 -4.88779,11.22579 -8.75402,14.04856 -11.92309,9.1831 -25.00812,14.25994 -37.75168,20.33102 -4.77113,-1.9551 -8.36608,10.4888 -3.13206,12.72616 5.53374,2.78107 11.41751,0.55065 17.07836,0.18633 17.50521,-3.93104 32.81456,-17.81692 49.17678,-26.79281 6.80289,-3.25108 14.83224,1.28484 18.18911,10.62924 3.37299,8.3293 3.06376,19.28255 -0.49324,27.37547 -5.62291,17.63476 -14.17112,33.84282 -25.64648,43.9826 -7.20317,5.22841 -15.61099,7.22799 -21.785,15.23191 -5.71018,2.75883 2.86268,14.06943 4.10147,5.09215 3.43085,-6.85951 9.4825,-8.91055 14.97072,-9.19422 8.2494,-1.31545 17.01006,-3.54586 23.41932,-11.91688 5.74622,-6.54247 11.40898,-15.56703 19.21163,-15.70748 4.31203,0.7495 8.57759,5.82913 12.95698,2.72962 3.83207,-2.57249 9.84294,-1.06515 10.84364,5.84163 1.82973,8.0804 7.51051,11.75698 12.01604,16.08014 1.63054,3.35675 7.04857,12.01423 8.29778,4.38159 -1.00829,-5.44394 0.43253,-13.77465 5.30421,-11.95583 4.25513,0.27811 8.31012,2.57945 12.55765,2.95628 5.65517,1.71731 10.37318,7.39347 13.58492,14.24742 2.20913,4.47336 7.04856,12.15745 10.64446,6.22681 2.23094,-6.13364 -2.02798,-11.24942 -5.49582,-13.43951 -5.05568,-4.59294 -9.37816,-10.70989 -13.79928,-16.50148 -6.51643,-8.92167 -12.14314,-20.26844 -13.17799,-33.59532 -1.40194,-13.28656 -0.66398,-26.84009 0.51884,-40.09189 1.48921,-8.53093 8.93141,-13.18923 14.13507,-8.65608 7.32174,4.89747 14.5932,11.90576 22.98774,11.14652 12.12987,0.38239 24.59456,-3.02163 36.44839,2.13029 11.53608,5.32714 19.78359,19.59821 31.01993,25.77358 2.51551,2.24153 5.73389,0.10846 6.65587,-3.83093 1.11358,-3.53891 0.32725,-8.06649 -1.99857,-10.08416 -13.02337,-19.27142 -30.82073,-28.6325 -45.88915,-43.69059 -4.74362,-1.76598 -5.60774,-12.95561 -1.22172,-16.18583 5.7652,-6.14199 13.92354,-3.28166 19.03805,3.05083 4.31962,3.70856 9.18655,6.48824 14.25458,6.4938 5.19133,-2.38199 2.67487,-13.39363 -1.97296,-14.2224 -8.42298,-6.97074 -14.45472,-18.41066 -21.75085,-27.47696 -4.202,-5.2145 -8.79955,-10.49436 -14.44618,-11.50527 -3.08559,-0.8246 -6.24136,-1.00398 -9.36868,-0.69667 -2.93287,-4.67218 0.97509,-11.82649 4.76733,-11.24108 3.89089,0.3838 7.75903,0.8079 11.64517,0.0138 4.34334,-0.46583 8.68194,-1.12494 13.0395,-1.16805 3.51812,3.5111 10.54771,-2.55441 7.37296,-8.61019 -3.46878,-4.45527 -8.48369,-4.0687 -12.62784,-6.35474 a 194.72848,285.46843 0 0 0 -22.19381,-8.55179 c -5.24824,-0.45887 -4.60039,-10.58475 0.0124,-11.70274 3.01919,-1.65057 5.64379,1.74929 8.54155,2.2763 4.94946,1.56019 10.05922,1.53934 15.00583,3.12036 4.19536,-3.03553 0.95232,-12.01839 -2.84182,-12.54262 -8.95226,-4.69305 -16.68947,-13.16279 -24.25403,-21.40311 -8.3509,-9.20672 -15.92685,-19.85406 -24.38018,-28.84943 -3.06757,-2.78523 -8.0948,-3.58757 -8.90106,-9.76294 -0.28456,-5.68171 4.276,-8.26811 7.50955,-6.94016 4.58807,1.98568 8.86216,5.44395 13.53844,7.14179 3.66799,0.91498 7.45075,2.50575 10.98593,1.82855 4.48846,-4.13545 -1.92553,-6.77745 -4.24659,-8.2111 -5.98335,-4.73199 -11.30085,-11.03529 -16.68663,-17.04796 -4.55106,-5.69424 3.86054,-8.20972 6.75357,-6.01684 4.83752,2.96602 5.38863,-7.36704 1.77281,-9.96735 -4.26081,-2.65594 -7.92406,-7.06391 -11.78744,-10.91014 -6.98121,-7.28361 -14.8863,-13.05017 -23.46675,-14.65207 -9.62098,-1.41695 -18.60076,-9.52655 -23.70483,-21.58805 -3.16526,-6.87341 -5.48822,-14.47546 -7.7334,-22.05666 z m -31.59285,79.12281 c 4.95799,0.21554 4.19537,13.31716 -0.68579,12.44252 -4.74077,-0.44777 -4.45052,-13.84972 0.68579,-12.44252 z m 46.77036,7.05557 c 4.82519,-1.26537 5.84676,11.64156 1.02631,12.24784 -5.02345,1.31823 -6.88446,-13.06547 -1.02631,-12.24784 z m -13.69875,1.68256 c 4.8916,1.41 4.0218,13.90256 -0.91532,14.01102 -3.61203,1.17918 -7.50482,4.79317 -11.15857,2.08581 -2.97177,-4.60823 1.3232,-11.42046 4.64022,-12.91807 2.54398,-0.75228 4.88496,-2.44595 7.43367,-3.17876 z m 31.5274,0.0542 c 4.71421,2.51965 3.05144,14.7188 -1.92078,14.56306 -4.70188,0.92471 -6.89206,-10.57501 -2.50698,-13.30185 1.41901,-0.73699 2.90631,-1.35855 4.42776,-1.26121 z m -53.18434,13.83721 c 3.4669,4.83627 1.419,14.16955 -2.85509,16.39997 -3.07989,2.5113 -7.28001,8.45443 -10.63497,3.56393 -1.82119,-5.97234 2.74885,-10.46934 5.43699,-13.78437 2.39886,-2.73379 5.04622,-5.21588 8.05307,-6.17953 z m 39.58615,26.97219 c 4.96273,3.43464 2.44342,16.54597 -3.00307,15.73112 -4.47328,-1.66168 -3.88898,-12.90972 0.61655,-13.80661 0.85179,-0.47834 1.63243,-1.18196 2.38652,-1.92451 z m -15.74663,1.30154 c 4.64119,3.18572 1.09746,14.54082 -3.57787,12.90417 -4.84701,-0.83432 -4.75785,-13.32688 0.5881,-12.19917 1.00734,-0.0723 2.04693,-0.11133 2.98977,-0.705 z m 33.94427,6.51327 c 5.08699,-2.31385 11.21168,5.36747 9.56122,13.16002 -2.26699,6.04048 -7.87283,6.80389 -11.88988,4.54705 -4.61082,-0.33373 -7.71253,-10.49715 -3.60443,-14.80086 1.69978,-1.88139 3.84251,-2.65591 5.93309,-2.90621 z m -75.14198,1.9537 c 4.20675,-3.35536 8.67246,6.7274 5.09553,11.17433 -2.36943,5.10744 -8.45428,7.19325 -11.13675,1.51569 -2.22905,-5.54823 1.37538,-14.8662 6.04218,-12.69002 z m -19.40702,4.77509 c 4.77114,0.95671 7.88043,7.31005 9.64471,13.36027 0.42968,7.37121 -6.99071,11.41628 -10.22711,6.05299 -3.64047,-3.34702 -6.8266,-10.23155 -4.91814,-16.62106 1.17617,-2.53772 3.51811,-3.5848 5.5015,-2.7922 z m 116.10445,26.64544 c 5.179,-1.9996 8.93804,10.13144 4.4913,14.51997 -4.06542,5.41334 -11.9705,-1.75765 -9.84957,-9.48207 1.05287,-2.8645 3.16146,-4.76676 5.35922,-5.0379 z m -65.90893,13.83859 c 4.34239,0.81068 2.9357,11.84319 -1.07945,11.47192 -4.30824,-1.17083 -3.32176,-12.09349 1.07945,-11.47192 z m -22.02498,5.86112 c 3.54088,-3.67381 8.10903,5.29237 5.16287,9.46953 -3.53044,3.64598 -8.10997,-5.17696 -5.16287,-9.46953 z m 35.0199,1.0846 c 4.10431,3.65712 6.54109,10.47491 7.0514,17.35388 -1.96725,6.42845 -9.56503,4.87939 -10.42154,-1.96622 -1.50154,-5.41335 -0.11762,-12.37575 3.36918,-15.38625 z m 12.22092,10.63759 c 5.28998,-1.94812 3.39101,14.26133 -1.02537,8.6394 -1.46833,-2.5558 -0.68199,-6.76078 1.02443,-8.6394 z m -76.75353,11.28697 c 3.50294,-1.50316 8.6089,0.0778 9.57545,5.97096 0.40788,5.53849 -3.74671,8.41969 -6.7915,9.79215 -4.87831,2.20816 -9.6504,5.83189 -14.89769,5.34521 -3.93357,-3.29556 -5.34499,-10.03965 -6.74693,-15.92162 3.79509,-5.21729 9.3848,-3.6863 14.08954,-4.99201 1.5888,-0.11955 3.18043,-0.1766 4.77113,-0.19469 z m 119.05818,25.39812 c 4.4676,-3.21214 9.27382,7.18628 5.53375,12.04204 -4.67913,7.89545 -13.68736,9.36246 -19.28371,2.72961 -0.67157,-6.98604 4.08818,-12.06151 8.31864,-13.06407 1.7785,-0.73699 3.54658,-1.83689 5.43132,-1.70758 z m 25.11436,7.9775 c 5.0775,-1.28068 9.07652,9.33605 5.45028,14.83144 -3.43086,7.58537 -11.61386,9.57383 -16.29204,3.35675 -1.82404,-6.28799 1.8762,-12.84019 5.81452,-14.85787 1.69219,-1.0568 3.2952,-2.40979 5.02724,-3.33032 z m -126.27748,11.28836 c 4.70189,-0.68137 9.00917,6.15729 8.39263,12.95283 3.40334,4.90998 -2.62365,14.05831 -6.01466,8.97312 -2.98788,-5.30767 -2.97271,-12.50786 -4.12993,-18.86121 -0.0522,-1.41139 0.66113,-3.23855 1.75196,-3.06474 z m 36.09364,3.96163 c 4.86123,-3.08142 11.15003,5.44396 8.50361,12.66082 -1.89043,5.8778 -9.26055,3.9074 -9.01582,-2.90065 -0.0124,-3.25803 -0.19161,-6.59809 0.51221,-9.76156 z m -17.55928,4.6124 c 4.87358,-1.63804 9.34497,7.6243 6.6369,13.80384 -4.85934,0.63409 -7.3815,-7.82036 -6.6369,-13.80384 z"
       fill="#00a651"
       id="path6"
       data-index="2"
       style="fill:none;stroke:#cecece;stroke-width:6.89079;stroke-dasharray:none;stroke-opacity:1" /><path
       d="m 368.83597,231.6688 c 33.9917,57.88466 50.501,122.25275 46.50945,181.22139 -3.99155,58.96861 -28.00948,105.52809 -67.64744,131.05816 -39.63797,25.53009 -90.14941,26.9736 -142.20063,4.10108 -52.05121,-22.87251 -99.45482,-67.34216 -133.446499,-125.2268 0,0 0,0 0,0 C 38.059164,364.93796 21.549854,300.56985 25.541402,241.60125 29.532942,182.63261 53.550877,136.07313 93.18884,110.54304 c 39.63798,-25.530066 90.14941,-26.973575 142.20063,-4.10106 52.05122,22.87251 99.45482,67.34216 133.4465,125.22682 0,0 0,0 0,0 z m -261.99486,-6.31318 c 30.95364,8.63929 79.16054,24.7698 133.27697,52.42958 60.81555,31.05465 113.84542,68.88371 157.57837,112.28173 l 5.74775,5.68365 -0.12052,-7.63201 c -0.62286,-49.62773 -16.20786,-102.94291 -43.98676,-150.24781 -1.9995,-3.40497 -4.22512,-6.99953 -6.81964,-11.02689 l -0.21421,-0.36482 -0.22019,-0.27718 C 303.06384,165.59359 241.10222,173.8253 186.38016,180.99761 c -26.35868,3.48526 -51.18854,6.74004 -72.70054,2.15942 l -2.43319,-0.52785 -0.72526,2.47835 c -3.0972,10.45869 -5.61127,21.715 -7.53627,33.68132 l -0.83178,5.22857 z m 16.10411,-55.54083 c 17.41857,1.5187 37.42998,-1.14662 58.64303,-3.9155 31.50429,-4.20162 66.78005,-8.82121 100.69028,-0.32636 7.67442,1.9287 15.49783,5.18603 23.10724,9.2516 l 17.44398,9.37959 -25.17417,-22.25022 c -19.90255,-17.76833 -41.18445,-31.63143 -63.14957,-41.28341 -18.09806,-7.95271 -36.16573,-12.82435 -53.81631,-14.44503 l -0.31531,-0.0485 -0.24388,0.0733 c -25.5855,2.65205 -46.88442,21.9849 -61.45216,56.0051 l -3.01467,6.88591 z M 101.4816,285.70811 c 37.55907,19.30135 77.44487,71.29472 115.93827,121.50327 47.27625,61.64699 91.91643,119.87998 128.62637,117.60494 l 0.79714,-0.0108 0.58885,-0.46306 c 30.66156,-23.5195 50.11229,-62.61213 54.75463,-110.01642 l 0.26705,-2.76991 -2.08257,-2.17831 C 356.47731,363.65339 302.06097,323.95191 238.47295,291.49853 183.27967,263.27533 134.66235,247.32536 103.54214,238.79334 l -3.20661,-0.86768 -0.3205,3.55847 c -1.16341,12.48142 -1.803253,25.46358 -1.741071,38.664 l -0.01708,3.78203 z M 80.639108,151.22451 c 0.999755,1.70248 2.552752,3.46763 4.587624,5.17382 3.623467,2.94563 8.228392,5.51052 14.201524,7.86456 l 2.712894,1.10191 0.97508,-2.63925 c 5.57691,-15.32405 12.43921,-28.45919 20.41443,-39.21052 l 14.22045,-15.94697 -19.49276,7.94593 c -6.07326,2.65465 -11.77165,5.65447 -16.93458,8.9798 -7.577836,4.88076 -14.750957,10.84163 -21.430106,17.74138 l -0.767246,0.74557 -0.08896,1.31431 c -0.0297,0.43811 -0.06522,0.96381 -0.02942,1.61116 0.05972,1.46989 0.42894,3.07574 1.053846,4.43306 0.220172,0.27719 0.357063,0.60804 0.577226,0.88524 z m 63.896222,318.51733 c 17.21009,29.30716 37.97598,50.79323 61.69081,64.0111 l 0.1547,0.0679 0.15469,0.0679 c 40.21786,17.67269 79.33798,19.79509 113.14852,6.2308 l 8.18495,-3.26056 -9.59659,-5.29969 C 283.72351,512.49811 245.95609,463.33037 209.44416,415.6166 173.5868,368.82205 136.55722,320.5199 103.442,301.45696 l -4.831048,-2.75446 0.322424,5.82596 c 0.119346,1.76675 0.244606,3.44588 0.363953,5.21264 2.177731,31.36334 7.526011,61.77401 15.866171,90.34149 7.63179,26.09069 17.5176,49.47259 29.37183,69.65925 z M 49.313095,212.79844 c 10.732036,1.46773 23.469037,3.90674 37.027141,7.15771 l 2.897238,0.73173 0.849579,-5.49143 c 1.71692,-11.2457 3.963375,-22.07825 6.644236,-32.26878 l 1.266162,-4.58654 -4.473976,-2.14643 c -5.01537,-2.38433 -9.37049,-5.1101 -12.916596,-8.02176 -3.165336,-2.65408 -5.914306,-5.57636 -8.014882,-8.66484 l -3.338288,-4.80532 -2.473993,3.60468 c -9.449932,13.71237 -16.817324,29.60301 -21.685803,47.4038 l -1.777428,6.25667 z m -2.463159,85.80598 c 0.784807,-2.18149 1.456685,-3.87125 2.27731,-5.40538 5.226972,-10.15445 13.459143,-15.28902 24.37528,-15.36448 2.789991,-0.037 5.716899,0.25647 8.858022,0.91494 l 3.301753,0.63882 0.02305,-3.86961 c 0.02135,-12.08102 0.435314,-24.07973 1.45022,-35.54369 l 0.43319,-5.22325 -4.628416,-1.04134 C 67.33576,230.1016 53.474451,227.80012 42.861513,226.92607 l -2.456915,-0.17735 -0.427742,2.78952 c -0.897015,6.19237 -1.526415,11.961 -1.911933,17.65633 -1.037914,15.33361 -0.540858,31.52216 1.520834,48.12754 l 2.639865,22.18288 z m 34.777305,118.05021 c 13.568112,23.10522 29.586719,44.12932 47.692859,62.55187 l 20.52769,20.29868 -15.73392,-25.22988 c -12.3304,-21.38839 -22.6091,-46.02566 -30.56826,-73.16249 -8.798538,-30.03204 -14.373146,-61.80534 -16.693951,-94.58496 -0.149231,-2.5017 -0.298452,-5.0034 -0.447694,-7.5051 l -0.298463,-5.00341 -4.18217,-0.57456 c -1.576491,-0.24159 -3.164847,-0.30797 -4.675871,-0.34037 -7.650215,0.0671 -13.384183,3.59249 -16.963967,10.59098 -3.121904,6.117 -4.827443,14.84134 -4.944148,25.97817 -0.323337,18.89576 3.844867,38.50204 5.059578,44.0885 l 0.125024,0.50609 0.202375,0.54004 c 6.035067,14.38143 13.045706,28.46971 20.900918,41.84644 z"
       id="path401"
       style="fill:#cecece;fill-opacity:1;stroke:url(#radialGradient7714);stroke-width:0;stroke-dasharray:none;stroke-opacity:1"
       inkscape:transform-center-x="-22.931772"
       inkscape:transform-center-y="99.474184" /><text
       xml:space="preserve"
       style="font-style:italic;font-variant:normal;font-weight:bold;font-stretch:normal;font-size:120px;font-family:C059;-inkscape-font-specification:'C059 Bold Italic';opacity:0.975877;fill:none;stroke:#e4e4e4;stroke-width:6;stroke-dasharray:none;stroke-opacity:1"
       x="409.88388"
       y="205.96893"
       id="text463"><tspan
         sodipodi:role="line"
         id="tspan461"
         x="409.88388"
         y="205.96893"
         style="font-style:italic;font-variant:normal;font-weight:bold;font-stretch:normal;font-size:120px;font-family:C059;-inkscape-font-specification:'C059 Bold Italic';fill:none;stroke:#e4e4e4;stroke-width:6;stroke-dasharray:none;stroke-opacity:1">Lebanese</tspan><tspan
         sodipodi:role="line"
         x="409.88388"
         y="355.96893"
         id="tspan465"
         style="font-style:italic;font-variant:normal;font-weight:bold;font-stretch:normal;font-size:120px;font-family:C059;-inkscape-font-specification:'C059 Bold Italic';fill:none;stroke:#e4e4e4;stroke-width:6;stroke-dasharray:none;stroke-opacity:1">BasketBall</tspan><tspan
         sodipodi:role="line"
         x="409.88388"
         y="505.96893"
         id="tspan467"
         style="font-style:italic;font-variant:normal;font-weight:bold;font-stretch:normal;font-size:120px;font-family:C059;-inkscape-font-specification:'C059 Bold Italic';fill:none;stroke:#e4e4e4;stroke-width:6;stroke-dasharray:none;stroke-opacity:1">League</tspan></text></g></svg>
